<?xml version="1.0" encoding="UTF-8" standalone="no"?>
<!-- Created with Inkscape (http://www.inkscape.org/) -->

<svg
   xmlns:dc="http://purl.org/dc/elements/1.1/"
   xmlns:cc="http://creativecommons.org/ns#"
   xmlns:rdf="http://www.w3.org/1999/02/22-rdf-syntax-ns#"
   xmlns:svg="http://www.w3.org/2000/svg"
   xmlns="http://www.w3.org/2000/svg"
   xmlns:sodipodi="http://sodipodi.sourceforge.net/DTD/sodipodi-0.dtd"
   xmlns:inkscape="http://www.inkscape.org/namespaces/inkscape"
   width="11in"
   height="8.5in"
   viewBox="0 0 990 764.99999"
   id="svg2"
   version="1.1"
   inkscape:version="0.91 r13725"
   sodipodi:docname="logo.svg"
   inkscape:export-filename="/Users/morpheus.5250/flowRoot3525.png"
   inkscape:export-xdpi="90"
   inkscape:export-ydpi="90">
  <defs
     id="defs4">
    <inkscape:perspective
       sodipodi:type="inkscape:persp3d"
       inkscape:vp_x="532.92821 : 278.947 : 1"
       inkscape:vp_y="0 : 190.71618 : 0"
       inkscape:vp_z="1056.2995 : 278.947 : 1"
       inkscape:persp3d-origin="794.61382 : 254.63068 : 1"
       id="perspective3637" />
    <inkscape:perspective
       sodipodi:type="inkscape:persp3d"
       inkscape:vp_x="532.39532 : 296.63334 : 1"
       inkscape:vp_y="0 : 190.71618 : 0"
       inkscape:vp_z="1055.7666 : 296.63334 : 1"
       inkscape:persp3d-origin="794.08095 : 272.31702 : 1"
       id="perspective3635" />
    <inkscape:perspective
       sodipodi:type="inkscape:persp3d"
       inkscape:vp_x="-194.54493 : 139.57084 : 1"
       inkscape:vp_y="0 : 1000 : 0"
       inkscape:vp_z="795.45511 : 139.57084 : 1"
       inkscape:persp3d-origin="300.45507 : 12.070842 : 1"
       id="perspective3633" />
    <inkscape:perspective
       sodipodi:type="inkscape:persp3d"
       inkscape:vp_x="279.21733 : 49.858418 : 1"
       inkscape:vp_y="0 : 1000 : 0"
       inkscape:vp_z="1269.2174 : 49.858418 : 1"
       inkscape:persp3d-origin="774.21733 : -77.641584 : 1"
       id="perspective3575" />
    <inkscape:perspective
       sodipodi:type="inkscape:persp3d"
       inkscape:vp_x="533.99399 : 302.01614 : 1"
       inkscape:vp_y="0 : 190.71618 : 0"
       inkscape:vp_z="1057.3653 : 302.01614 : 1"
       inkscape:persp3d-origin="795.67962 : 277.69982 : 1"
       id="perspective3489" />
  </defs>
  <sodipodi:namedview
     id="base"
     pagecolor="#ffffff"
     bordercolor="#666666"
     borderopacity="1.0"
     inkscape:pageopacity="0.0"
     inkscape:pageshadow="2"
     inkscape:zoom="0.70149148"
     inkscape:cx="472.06536"
     inkscape:cy="532.06441"
     inkscape:document-units="px"
     inkscape:current-layer="flowRoot3481"
     showgrid="false"
     units="in"
     showguides="false"
     inkscape:window-width="1872"
     inkscape:window-height="1035"
     inkscape:window-x="48"
     inkscape:window-y="1"
     inkscape:window-maximized="1" />
  <metadata
     id="metadata7">
    <rdf:RDF>
      <cc:Work
         rdf:about="">
        <dc:format>image/svg+xml</dc:format>
        <dc:type
           rdf:resource="http://purl.org/dc/dcmitype/StillImage" />
        <dc:title></dc:title>
      </cc:Work>
    </rdf:RDF>
  </metadata>
  <g
     inkscape:label="Layer 1"
     inkscape:groupmode="layer"
     id="layer1"
     transform="translate(0,-287.36221)">
    <g
       transform="matrix(0.02577334,0,0,-0.02577334,85.668536,593.47542)"
       id="g3480"
       style="fill:#ff6600;stroke:none">
      <path
         d="m 4167.857,10506.861 c -466.7738,-226.134 -777.0724,-660.2465 -1152.4323,-994.8657 -565.505,-54.8204 -1525.7833,-442.7287 -1941.0926,-751.2584 -281.67173,-40.0495 -1221.35834,353.382 -1682.30333,-260.6656 356.4221,-304.7348 498.63463,-823.6841 781.90366,-1029.6329 -330.23178,-457.4946 -342.51071,-1728.8065 844.83327,-1914.1529 1048.9189,325.1083 2742.7129,-2703.1222 4982.3902,1214.3831 350.8087,491.3687 671.9545,-146.1675 650.4069,-413.7714 -53.9701,-406.7357 424.5847,-1095.2467 945.016,-737.3701 416.4152,422.404 566.2672,1133.9836 361.1024,1647.1348 -248.2776,355.9456 -785.9944,680.6612 -1218.5214,786.7629 -701.952,132.8238 -1239.2275,-516.4366 -1559.625,-1065.8087 -232.8504,-296.6389 -481.3641,-999.4089 -479.4103,-1138.1324 -135.4906,192.5207 -231.8914,532.1388 -402.8257,665.8432 135.7583,169.9414 361.8075,346.9529 466.3456,470.5442 416.0328,429.9149 761.145,805.5988 643.3601,1417.2831 -61.6472,500.5237 -543.5917,814.9399 -729.2562,929.2514 -62.1698,313.6672 -179.2434,1022.9544 -509.8913,1174.4554 z m 28.284,-151.789 c 102.0586,-65.526 210.0727,-525.2945 265.6162,-922.2537 -238.3118,123.3238 -767.7046,131.0875 -983.6735,146.7121 113.3292,215.8821 661.0022,760.3736 718.0573,775.5416 z M 3462.857,6146.8613 C 2865.4594,5808.3967 2163.6927,5799.5883 1496.4494,5799.1917 94.546118,5867.4421 6.7582178,6714.1295 571.95131,7635.1507 1443.4985,9653.9815 5139.6332,9746.9585 5155.9374,8179.2584 5077.2636,7506.6936 4503.293,7060.5508 4040.7123,6621.7523 3853.6009,6456.9002 3660.0776,6299.4339 3462.857,6146.8613 Z M 817.10567,8448.5977 c -49.0466,-99.5782 -342.22346,-552.9372 -512.12104,-744.703 -262.202842,31.7271 -537.27214,768.5836 -591.28356,804.9388 415.73386,194.6794 739.98114,106.5586 1103.4046,-60.2358 z M 7677.1441,7128.691 c 270.3791,-618.2787 -2.7042,-1250.8135 -188.4396,-1341.6699 -529.2578,-260.5418 -619.0223,297.36 -669.1134,652.1554 14.7742,77.5325 -616.8821,1041.9873 -1040.6185,472.1629 -799.718,-2970.4446 -2941.2229,-1686.1627 -4112.8737,-1337.9793 351.142,24.6033 1462.3134,-19.943 2262.6413,728.7694 341.2468,193.8518 554.5524,-537.9293 749.5528,-811.3306 21.8315,358.6848 240.6986,682.7253 638.0372,1349.8391 268.6617,449.0833 691.9536,1048.3083 1284.0388,1019.2075 437.4292,-86.0792 861.1191,-351.9602 1076.7751,-731.1545 z"
         id="path3482"
         inkscape:connector-curvature="0"
         style="fill:#ff6600"
         sodipodi:nodetypes="cccccccccccccccccccccccccccccccccccccccccc" />
      <path
         d="m 4052.682,8489.3383 c -35,-10 -76,-28 -92,-39 -149.2188,-131.6223 -208.8391,-344.6586 -291.1792,-529.5734 l -16.1385,-44.5054 c -2.1863,-6.029 125.234,-88.3304 215.0209,-102.5442 40.1331,33.5562 -53.8125,-11.5952 -47.6669,73.3888 12.5029,108.4667 178.5316,337.3622 229.9637,408.2342 71.3338,162.0667 447.4276,78.1892 599,31 106,-35 140,-29 140,23 0,47 -18,58 -160,100 -41,12 -91,28 -110,35 -157,58 -360,77 -467,45 z"
         id="path3492"
         inkscape:connector-curvature="0"
         style="fill:#ff6600" />
      <path
         d="m 1838.1462,7687.6092 c -71.9078,-150.2044 -195.1056,-378.9008 -219.6908,-573.5369 16.0368,-34.3494 174.9598,-15.2526 204.7531,-36.5198 47.8464,114.0593 84.175,285.5825 192.362,475.1855 253.1504,122.8227 485.1065,-53.7046 461.1454,-146.2098 63.4935,-51.5093 125.2602,-28.4493 242.117,-7.2874 -84.7062,246.1218 -90.1271,260.672 -315.4703,346.833 -181.6973,80.2539 -475.31,28.603 -565.2164,-58.4646 z"
         id="path3498"
         inkscape:connector-curvature="0"
         style="fill:#ff6600" />
      <path
         d="m 3759.2897,7065.4028 c -14,-3 -30,-17 -36,-30 -47,-104 -73,-149 -105,-182 -31,-33 -79.9354,-38 -118.9354,-38 -62.2943,15.8995 -118.5481,14.8775 -168.0646,28 -108,31 -147,35 -181,18 -8.6698,-100.6859 -88.5446,-238.9054 49,-246 503.7892,25.6554 461.1932,-83.9072 585.6219,319.049 43.2564,90.9561 11.7191,138.88 -25.6219,130.951 z"
         id="path3502"
         inkscape:connector-curvature="0"
         style="fill:#ff6600" />
      <path
         style="fill:#ff6600;fill-opacity:1;fill-rule:nonzero;stroke:none;stroke-width:1px;stroke-linecap:butt;stroke-linejoin:miter;stroke-opacity:1"
         id="path3630"
         d="m 5471.2051,9104.3359 c -168.5123,-100.3098 -737.275,-411.7057 -911.1165,-502.365 -10.5845,-8.6154 261.2181,363.5647 271.8026,372.1801 l 0,0 c 174.1454,106.0453 1193.8393,576.7569 1386.0818,646.0194 9.8506,6.4955 -736.9174,-509.3391 -746.7679,-515.8345 z"
         inkscape:connector-curvature="0" />
      <path
         style="fill:#ff6600;fill-opacity:1;fill-rule:nonzero;stroke:none;stroke-width:1px;stroke-linecap:butt;stroke-linejoin:miter;stroke-opacity:1"
         id="path3632"
         d="m 5644.6843,8743.1051 c -446.2475,-249.6528 39.6493,-123.3316 -436.2739,-308.4809 -206.7893,-73.3788 -115.1479,-43.6282 -273.8568,-92.4748 -10.9229,-7.6398 -118.967,146.834 -108.0441,154.474 l 0,0 c 138.416,86.4844 56.7696,38.6181 247.9831,138.2758 215.6742,116.5078 757.4838,354.4938 1455.2493,582.5648 10.5485,5.1883 -874.5092,-469.1707 -885.0576,-474.3589 z"
         inkscape:connector-curvature="0" />
      <path
         style="fill:#ff6600;fill-opacity:1;fill-rule:nonzero;stroke:none;stroke-width:1px;stroke-linecap:butt;stroke-linejoin:miter;stroke-opacity:1"
         id="path3666"
         d="m -569.63331,6675.7141 c 393.53136,140.7227 783.56018,291.6251 1170.78902,448.8654 45.099,19.0669 90.1979,38.1337 135.2969,57.2007 7.8094,5.5666 86.5324,-104.8758 78.7229,-110.4423 l 0,0 c -43.8178,-22.5783 -87.6356,-45.1567 -131.4534,-67.735 -59.3195,-28.0355 -117.92508,-57.6343 -177.95858,-84.1065 -152.1793,-67.1045 -316.72413,-130.7005 -473.076678,-186.419 -162.901282,-58.0523 -274.925132,-95.4788 -439.820772,-135.6241 -39.38156,-9.5878 -79.60085,-15.3309 -119.40127,-22.9964 -7.15997,-3.0475 -50.25808,98.2097 -43.09812,101.2572 z"
         inkscape:connector-curvature="0" />
      <path
         style="fill:#ff6600;fill-opacity:1;fill-rule:nonzero;stroke:none;stroke-width:1px;stroke-linecap:butt;stroke-linejoin:miter;stroke-opacity:1"
         id="path3668"
         d="m -238.47611,6269.6145 c 24.6022,17.4211 48.23067,36.306 73.8066,52.2633 63.06143,39.3452 268.94089,151.4487 315.92504,177.0753 244.34455,133.2727 491.34933,260.3574 739.72401,385.9156 9.2926,7.0143 108.4906,-124.4018 99.198,-131.4162 l 0,0 C 947.78134,6731.7533 530.00398,6517.7739 490.75064,6498.3093 300.58119,6404.01 106.62057,6318.783 -85.197795,6228.1273 c -27.386695,-12.9432 -191.203675,-95.355 -218.346155,-108.803 -5.7863,-5.0805 59.28154,145.2095 65.06784,150.2902 z"
         inkscape:connector-curvature="0" />
    </g>
    <g
       transform="matrix(0.5687746,0,0,0.5687746,1.8071189,330.15894)"
       style="font-style:normal;font-variant:normal;font-weight:normal;font-stretch:normal;font-size:40px;line-height:125%;font-family:Kefa;-inkscape-font-specification:Kefa;letter-spacing:0px;word-spacing:0px;fill:#ff6600;fill-opacity:1;stroke:none;stroke-width:1px;stroke-linecap:butt;stroke-linejoin:miter;stroke-opacity:1"
       id="flowRoot3481">
      <path
         d="m 187.00977,233.48116 q -28.91602,0.0879 -47.10938,7.4707 -3.69141,-5.88867 -3.69141,-11.42578 0,-3.69141 2.37305,-5.53711 2.46094,-1.8457 8.34961,-1.8457 l 65.03906,0 q 5.27344,0 6.76758,1.49414 1.49414,1.40625 1.49414,4.48242 0,4.04297 -4.21875,10.89844 -4.13086,6.76758 -17.05078,27.59765 -12.91992,20.74219 -24.69727,40.07813 -11.68945,19.33594 -12.1289,24.08203 l 11.77734,0 q 27.42188,0 45.08789,-8.08594 3.60352,5.88867 3.60352,11.25 0,4.57032 -2.54883,6.41602 -2.54883,1.75781 -10.37109,1.75781 l -68.73047,0 q -5.625,0 -5.625,-6.06445 0,-3.25196 2.28515,-6.67969 2.28516,-3.51562 18.54493,-29.17969 16.34765,-25.66406 26.89453,-42.89062 10.54687,-17.31446 13.35937,-23.81836 l -9.40429,0 z"
         style="font-style:normal;font-variant:normal;font-weight:normal;font-stretch:normal;font-size:180px;line-height:135.00000238%;font-family:Kefa;-inkscape-font-specification:Kefa;fill:#ff6600"
         id="path4093" />
      <path
         d="m 271.64844,265.56124 q -8.78907,0 -13.35938,6.32812 -4.57031,6.24024 -5.00976,19.59961 l 9.05273,0 q 14.41406,0 19.59961,-0.52734 5.27344,-0.61524 6.06445,-1.9336 0.87891,-1.31836 0.87891,-4.92187 0,-8.70117 -4.39453,-13.62305 -4.39453,-4.92187 -12.83203,-4.92187 z m 3.33984,-11.77735 q 16.34766,0 24.25781,7.73438 7.91016,7.73437 7.91016,25.48828 0,7.82226 -2.8125,10.89844 -2.8125,3.07617 -12.30469,3.07617 l -38.84765,0 q 0.17578,14.32617 5.71289,22.5 5.625,8.17383 19.77539,8.17383 13.18359,0 24.52148,-6.85547 3.7793,3.77929 3.7793,7.99804 0,5.88868 -9.75586,8.26172 -9.66797,2.37305 -21.88477,2.37305 -22.5,0 -32.34375,-9.49219 -9.75586,-9.58008 -9.75586,-32.16797 0,-22.23632 10.98633,-35.06836 11.07422,-12.91992 30.76172,-12.91992 z"
         style="font-style:normal;font-variant:normal;font-weight:normal;font-stretch:normal;font-size:180px;line-height:135.00000238%;font-family:Kefa;-inkscape-font-specification:Kefa;fill:#ff6600"
         id="path4095" />
      <path
         d="m 348.37695,265.47335 q 8.70117,-5.80079 17.13867,-8.52539 8.5254,-2.72461 15.20508,-2.72461 11.68946,0 17.57813,5.44921 5.97656,5.36133 5.97656,20.56641 0,47.28516 1.31836,50.09766 1.40625,2.8125 6.32812,2.72461 0.9668,2.54882 0.9668,5.09765 0,2.37305 -1.49414,3.16407 -1.49414,0.79101 -5.53711,0.79101 -12.2168,0 -14.9414,-0.26367 -2.72461,-0.35156 -3.69141,-1.8457 -0.9668,-1.58204 -0.9668,-5.18555 l 0,-37.88086 q 0,-18.10547 -3.86719,-24.08203 -3.77929,-5.97656 -12.30468,-5.97656 -7.29492,0 -12.65625,4.13086 -5.27344,4.13085 -5.27344,14.85351 l 0,18.54492 q 0,15.55664 0.61523,28.65235 l 9.75586,0 q 1.05469,2.28515 1.05469,4.92187 0,2.37305 -0.9668,3.25195 -0.96679,0.87891 -3.6914,0.87891 l -34.54102,0 q -1.14258,-2.8125 -1.14258,-5.27344 0,-1.93359 0.9668,-2.8125 0.9668,-0.96679 3.16406,-0.96679 l 6.06446,0 q 0.70312,-13.97461 0.70312,-34.27735 0,-25.92773 -2.02148,-30.05859 -2.02149,-4.13086 -7.73438,-4.13086 -1.14258,-2.46094 -1.14258,-5.09766 0,-2.37304 1.84571,-2.98828 1.8457,-0.70312 23.29101,-1.40625 0.52735,4.04297 0,10.3711 z"
         style="font-style:normal;font-variant:normal;font-weight:normal;font-stretch:normal;font-size:180px;line-height:135.00000238%;font-family:Kefa;-inkscape-font-specification:Kefa;fill:#ff6600"
         id="path4097" />
      <path
         d="m 453.14258,298.52022 0.0879,28.38867 q 2.90039,2.37305 7.38281,3.7793 4.57031,1.40625 10.10742,1.40625 11.07422,0 15.73242,-7.11914 4.7461,-7.20703 4.7461,-25.57617 -0.0879,-16.69922 -4.7461,-25.22461 -4.6582,-8.61328 -14.76562,-8.61328 -6.5918,0 -10.72266,2.72461 -4.13086,2.63671 -5.97656,7.55859 -1.75781,4.92187 -1.8457,22.67578 z m -17.92969,-6.76758 q 0,-37.17773 -0.35156,-47.28515 -0.26367,-10.19532 -1.23047,-13.27149 -0.87891,-3.07617 -3.07617,-3.95508 -2.10938,-0.8789 -5.44922,-0.8789 -1.14258,-2.72461 -1.14258,-5.36133 0,-2.72461 2.19727,-3.42773 2.19726,-0.70313 14.50195,-0.70313 6.94336,0 9.4043,0.70313 2.46093,0.61523 2.8125,2.46093 0.35156,1.75782 0.35156,6.15235 L 452,261.69405 q 5.53711,-3.7793 12.56836,-5.80078 7.11914,-2.10938 15.9082,-2.10938 13.97461,0 22.23633,9.22852 8.34961,9.14062 8.34961,30.84961 0,24.60937 -10.89844,37.35351 -10.81054,12.65625 -31.64062,12.65625 -7.20703,0 -13.1836,-1.23047 -5.88867,-1.23046 -9.22851,-2.8125 l -2.72461,2.72461 q -5.88867,0 -7.38281,-1.31836 -1.40625,-1.31835 -1.40625,-4.92187 0,-3.07617 0.26367,-14.94141 0.35156,-11.86523 0.35156,-29.61914 z"
         style="font-style:normal;font-variant:normal;font-weight:normal;font-stretch:normal;font-size:180px;line-height:135.00000238%;font-family:Kefa;-inkscape-font-specification:Kefa;fill:#ff6600"
         id="path4099" />
      <path
         d="m 567.13672,332.09444 q 10.01953,0 14.50195,-7.55859 4.48242,-7.5586 4.48242,-23.29102 0,-18.10547 -4.6582,-26.89453 -4.57031,-8.78906 -15.82031,-8.78906 -10.01953,0 -14.50196,7.55859 -4.48242,7.55859 -4.48242,23.37891 0,18.01757 4.57032,26.80664 4.6582,8.78906 15.9082,8.78906 z m -3.33985,11.77734 q -19.07226,0 -28.0371,-10.10742 -8.96485,-10.10742 -8.96485,-30.49805 0,-23.46679 10.81055,-36.4746 10.89844,-13.00782 31.37695,-13.00782 19.07227,0 28.03711,10.10742 8.96484,10.10743 8.96484,30.58594 0,23.37891 -10.89843,36.38672 -10.81055,13.00781 -31.28907,13.00781 z"
         style="font-style:normal;font-variant:normal;font-weight:normal;font-stretch:normal;font-size:180px;line-height:135.00000238%;font-family:Kefa;-inkscape-font-specification:Kefa;fill:#ff6600"
         id="path4101" />
      <path
         d="m 624.96875,255.98116 5.97656,0 7.11914,-24.96094 q 3.69141,1.14258 6.24024,2.72461 2.63672,1.58203 3.86718,3.7793 1.23047,2.10937 1.23047,14.85351 l 0,3.60352 28.91602,0 q 1.05469,2.90039 1.05469,6.15234 0,2.54883 -0.9668,3.42774 -0.9668,0.79101 -3.86719,0.79101 l -25.13672,0 0,41.57227 q 0,14.85351 2.72461,19.59961 2.72461,4.6582 8.17383,4.92187 5.53711,0.26367 13.53516,-3.60351 1.93359,2.90039 1.93359,6.32812 0,4.6582 -5.18555,6.24024 -5.09765,1.58203 -16.17187,1.58203 -12.04102,0 -17.57813,-4.92188 -5.44921,-4.92187 -5.44921,-18.36914 l 0,-20.6543 q 0,-16.875 -0.9668,-32.69531 l -8.61328,0 q -1.05469,-3.16406 -1.05469,-6.15234 0,-2.19727 0.9668,-3.16406 0.96679,-1.05469 3.25195,-1.05469 z"
         style="font-style:normal;font-variant:normal;font-weight:normal;font-stretch:normal;font-size:180px;line-height:135.00000238%;font-family:Kefa;-inkscape-font-specification:Kefa;fill:#ff6600"
         id="path4103" />
    </g>
    <flowRoot
       xml:space="preserve"
       id="flowRoot3525"
       style="font-style:normal;font-weight:normal;font-size:40px;line-height:125%;font-family:sans-serif;letter-spacing:0px;word-spacing:0px;fill:#ff6600;fill-opacity:1;stroke:none;stroke-width:1px;stroke-linecap:butt;stroke-linejoin:miter;stroke-opacity:1"
       transform="matrix(1.006753,0,0,0.94965149,-300.22405,336.67434)"><flowRegion
         id="flowRegion3527"><rect
           id="rect3529"
           width="159.26476"
           height="76.608368"
           x="674.35522"
           y="99.716827"
           style="fill:#ff6600" /></flowRegion><flowPara
         id="flowPara3531"
         style="font-style:normal;font-variant:normal;font-weight:normal;font-stretch:normal;font-family:Kefa;-inkscape-font-specification:Kefa;fill:#ff6600">4</flowPara></flowRoot>  </g>
</svg>
