<?xml version="1.0" encoding="UTF-8" standalone="no"?>
<svg
   xmlns:dc="http://purl.org/dc/elements/1.1/"
   xmlns:cc="http://creativecommons.org/ns#"
   xmlns:rdf="http://www.w3.org/1999/02/22-rdf-syntax-ns#"
   xmlns:svg="http://www.w3.org/2000/svg"
   xmlns="http://www.w3.org/2000/svg"
   id="svg3476"
   preserveAspectRatio="xMidYMid meet"
   viewBox="0 0 878.728211 1057.097285"
   height="1057.097285pt"
   width="878.728211pt"
   version="1.0">
  <defs
     id="defs3560" />
  <metadata
     id="metadata3478">
Created by potrace 1.12, written by Peter Selinger 2001-2015
<rdf:RDF>
  <cc:Work
     rdf:about="">
    <dc:format>image/svg+xml</dc:format>
    <dc:type
       rdf:resource="http://purl.org/dc/dcmitype/StillImage" />
    <dc:title></dc:title>
  </cc:Work>
</rdf:RDF>
</metadata>
  <g
     id="g3480"
     stroke="none"
     fill="#000000"
     transform="translate(-21.012641,1061.875292) scale(0.100000,-0.100000)">
    <path
       id="path3482"
       d="M 5057.0014,10599.003 C 4590.2276,10372.869 4279.929,9938.7566 3904.5691,9604.137 3339.0641,9549.3166 2378.7858,9161.4083 1963.4765,8852.8786 1681.8048,8812.8291 742.11813,9206.2606 281.17314,8592.213 637.59524,8287.4782 779.80777,7768.5289 1063.0768,7562.5801 732.84502,7105.0855 720.56609,5833.7736 1907.9101,5648.4272 1642.8708,4539.9967 1512.45,3268.9877 1688.2454,2277.8634 1801.1732,1609.0706 1901.5733,874.5258 2392.7835,366.917 c 1659.3124,54.78797 991.6001,1198.6515 909.2673,1655.3079 -109.0107,540.5357 387.2446,1295.9188 628.3977,688.1589 154.1989,-361.5156 55.1277,-771.353 -60.7435,-1190.9618 -216.888,-396.3008 -193.1787,-1189.46433 553.0195,-1064.62154 223.6678,10.8354 379.6156,180.59928 433.9301,251.31692 82.1848,-86.16854 897.8925,-302.42355 1210.7387,-190.20706 657.04,256.928 604.004,954.52748 786.3453,1576.42108 238.905,928.5297 289.2318,1921.6716 30.6283,2851.0811 -109.3112,630.8063 -182.1871,1298.0045 5.9334,1919.3978 350.8087,491.3687 671.9545,-146.1675 650.4069,-413.7714 -53.9701,-406.7357 424.5847,-1095.2467 945.016,-737.3701 416.4152,422.404 566.2672,1133.9836 361.1024,1647.1348 -248.2776,355.9456 -785.9944,680.6612 -1218.5214,786.7629 -701.952,132.8238 -1239.2275,-516.4366 -1559.625,-1065.8087 -232.8504,-296.6389 -481.3641,-999.4089 -479.4103,-1138.1324 -135.4906,192.5207 -231.8914,532.1388 -402.8257,665.8432 135.7583,169.9414 361.8075,346.9529 466.3456,470.5442 416.0328,429.9149 761.145,805.5988 643.3601,1417.2831 -61.6472,500.5237 -543.5917,814.9399 -729.2562,929.2514 -62.1698,313.6672 -179.2434,1022.9547 -509.8913,1174.4557 z m 28.284,-151.789 c 102.0586,-65.526 210.0727,-525.2944 265.6162,-922.254 -238.3118,123.3238 -767.7046,131.0875 -983.6735,146.7121 113.3292,215.8817 661.0022,760.3739 718.0573,775.5419 z M 4352.0014,6239.003 C 3754.6038,5900.5384 3052.8371,5891.73 2385.5938,5891.3334 983.69049,5959.5838 895.90259,6806.2712 1461.0957,7727.2924 2332.6429,9746.1232 6028.7776,9839.0999 6045.0818,8271.4001 5966.408,7598.8353 5392.4374,7152.6925 4929.8567,6713.894 4742.7453,6549.0419 4549.222,6391.5756 4352.0014,6239.003 Z M 1706.2501,8540.7394 c -49.0466,-99.5782 -342.2235,-552.9372 -512.1211,-744.703 -262.20284,31.7271 -537.27214,768.5836 -591.28356,804.9388 415.73386,194.6794 739.98116,106.5586 1103.40466,-60.2358 z M 8566.2885,7220.8327 c 270.3791,-618.2787 -2.7042,-1250.8135 -188.4396,-1341.6699 -529.2578,-260.5418 -619.0223,297.36 -669.1134,652.1554 14.7742,77.5325 -616.8821,1041.9873 -1040.6185,472.1629 C 6401.0522,6372.711 6556.2844,5347.4297 6719.2335,4689.136 6982.4946,3469.6041 6822.6974,2090.0191 6237.835,976.58394 5990.5433,613.99014 5367.4327,606.67181 4924.6072,919.47181 c 69.6403,92.44129 332.6563,467.83249 440.1775,1040.32349 80.6311,379.0466 330.5243,1571.683 -5.4131,1943.7451 -281.3397,-227.6443 -465.5762,-787.2949 -453.825,-1072.4704 282.1175,673.5776 431.3598,393.2364 403.882,286.1389 C 5289.9563,2273.515 5161.1179,1645.5854 4771.2499,1054.8642 4627.2868,861.2058 4384.4615,1075.3388 4615.2961,868.95135 4539.3813,529.70335 4220.3715,704.0002 4272.5109,931.1746 3835.9794,601.5258 4091.8277,1520.7722 4190.0435,1787.4114 4577.7139,3293.114 3167.2862,3731.3587 3035.8588,2263.2 3003.3399,1771.2156 3356.6426,1363.0555 3160.2946,918.18802 2711.5054,351.87939 2941.4752,1367.831 2648.2641,599.441 c -100.1418,1353.0313 -269.7219,193.82821 -269.7219,193.82821 0,0 -350.8353,868.24439 -399.698,1763.03019 -41.5211,513.6581 -128.0535,1027.9959 -48.7297,1544.2557 73.1933,407.6986 266.7961,1078.5059 269.2091,1498.2118 351.142,24.6033 1818.2331,46.7919 2618.561,795.5043 341.2468,193.8518 554.5524,-537.9293 749.5528,-811.3306 385.7235,-800.5221 658.9102,-1690.8166 589.5639,-2587.9344 249.4242,851.1372 21.1107,1764.3758 -279.5965,2573.1424 -166.3054,471.4394 57.9264,913.071 328.0698,1364.6311 268.6617,449.0833 691.9536,1048.3083 1284.0388,1019.2075 437.4292,-86.0792 861.1191,-351.9602 1076.7751,-731.1545 z" />
    <path
       id="path3492"
       d="m 4297.3768,8355.8684 c -35,-10 -76,-28 -92,-39 -149.2188,-131.6223 -208.8391,-344.6586 -291.1792,-529.5734 l -16.1385,-44.5054 c -2.1863,-6.029 125.234,-88.3304 215.0209,-102.5442 40.1331,33.5562 -53.8125,-11.5952 -47.6669,73.3888 12.5029,108.4667 178.5316,337.3622 229.9637,408.2342 71.3338,162.0667 447.4276,78.1892 599,31 106,-35 140,-29 140,23 0,47 -18,58 -160,100 -41,12 -91,28 -110,35 -157,58 -360,77 -467,45 z" />
    <path
       id="path3498"
       d="m 2082.841,7554.1393 c -71.9078,-150.2044 -195.1056,-378.9008 -219.6908,-573.5369 16.0368,-34.3494 174.9598,-15.2526 204.7531,-36.5198 47.8464,114.0593 84.175,285.5825 192.362,475.1855 253.1504,122.8227 485.1065,-53.7046 461.1454,-146.2098 63.4935,-51.5093 125.2602,-28.4493 242.117,-7.2874 -84.7062,246.1218 -90.1271,260.672 -315.4703,346.833 -181.6973,80.2539 -475.31,28.603 -565.2164,-58.4646 z" />
    <path
       id="path3502"
       d="m 4003.9845,6931.9329 c -14,-3 -30,-17 -36,-30 -47,-104 -73,-149 -105,-182 -31,-33 -79.9354,-38 -118.9354,-38 -62.2943,15.8995 -118.5481,14.8775 -168.0646,28 -108,31 -147,35 -181,18 -8.6698,-100.6859 -88.5446,-238.9054 49,-246 503.7892,25.6554 461.1932,-83.9072 585.6219,319.049 43.2564,90.9561 11.7191,138.88 -25.6219,130.951 z" />
    <path
       d="m 6313.6238,9222.5392 c -168.5123,-100.3098 -737.275,-411.7057 -911.1165,-502.365 -10.5845,-8.6154 261.2181,363.5647 271.8026,372.1801 l 0,0 c 174.1454,106.0453 1193.8393,576.7569 1386.0818,646.0194 9.8506,6.4955 -736.9174,-509.3391 -746.7679,-515.8345 z"
       id="path3630"
       style="fill:#000000;fill-opacity:1;fill-rule:nonzero;stroke:none;stroke-width:1px;stroke-linecap:butt;stroke-linejoin:miter;stroke-opacity:1" />
    <path
       d="m 6424.1847,8829.8493 c -446.2475,-249.6528 39.6493,-123.3316 -436.2739,-308.4809 -206.7893,-73.3788 -115.1479,-43.6282 -273.8568,-92.4748 -10.9229,-7.6398 -118.967,146.834 -108.0441,154.474 l 0,0 c 138.416,86.4844 56.7696,38.6181 247.9831,138.2758 215.6742,116.5078 757.4838,354.4938 1455.2493,582.5648 10.5485,5.1883 -874.5092,-469.1707 -885.0576,-474.3589 z"
       id="path3632"
       style="fill:#000000;fill-opacity:1;fill-rule:nonzero;stroke:none;stroke-width:1px;stroke-linecap:butt;stroke-linejoin:miter;stroke-opacity:1" />
    <path
       d="m 84.030458,6573.7034 c 393.531362,140.7227 783.560182,291.6251 1170.789042,448.8654 45.099,19.0669 90.1979,38.1337 135.2969,57.2007 7.8094,5.5666 86.5324,-104.8758 78.7229,-110.4423 l 0,0 c -43.8178,-22.5783 -87.6356,-45.1567 -131.4534,-67.735 -59.3195,-28.0355 -117.9251,-57.6343 -177.9586,-84.1065 -152.1793,-67.1045 -316.72413,-130.7005 -473.07668,-186.419 -162.90128,-58.0523 -274.92513,-95.4788 -439.82077,-135.6241 -39.38156,-9.5878 -79.60085,-15.3309 -119.40127,-22.9964 -7.15997,-3.0475 -50.258082,98.2097 -43.098122,101.2572 z"
       id="path3666"
       style="fill:#000000;fill-opacity:1;fill-rule:nonzero;stroke:none;stroke-width:1px;stroke-linecap:butt;stroke-linejoin:miter;stroke-opacity:1" />
    <path
       d="m 163.51444,6230.5221 c 24.6022,17.4211 48.23067,36.306 73.8066,52.2633 63.06143,39.3452 268.94088,151.4487 315.92503,177.0753 244.34455,133.2727 491.34933,260.3574 739.72403,385.9156 9.2926,7.0143 108.4906,-124.4018 99.198,-131.4162 l 0,0 c -42.3962,-21.6992 -460.17358,-235.6786 -499.42692,-255.1432 -190.16945,-94.2993 -384.13007,-179.5263 -575.94843,-270.182 -27.38669,-12.9432 -191.20368,-95.355 -218.346158,-108.803 -5.7863,-5.0805 59.281548,145.2095 65.067848,150.2902 z"
       id="path3668"
       style="fill:#000000;fill-opacity:1;fill-rule:nonzero;stroke:none;stroke-width:1px;stroke-linecap:butt;stroke-linejoin:miter;stroke-opacity:1" />
  </g>
</svg>
